<svg xmlns="http://www.w3.org/2000/svg" width="24" height="24" viewBox="0 0 24 24"><defs><style>.a{fill:#434343;}</style></defs><path class="a" d="M259.5,42.793v24h24v-24Zm7.37,19.8a.553.553,0,0,1-.554.553h-2.355a.553.553,0,0,1-.554-.553V52.545a.553.553,0,0,1,.554-.553h2.355a.553.553,0,0,1,.554.553Zm-1.735-12.137a2.009,2.009,0,1,1,2.017-2A2,2,0,0,1,265.135,50.455Zm14.739,5.065v7.4a.229.229,0,0,1-.229.23h-3.01a.23.23,0,0,1-.23-.23v-6.2a1.942,1.942,0,0,0-1.965-1.942,1.958,1.958,0,0,0-1.92,1.967v6.178a.23.23,0,0,1-.23.23h-3a.23.23,0,0,1-.23-.23V52.221a.23.23,0,0,1,.23-.23h2.938a.23.23,0,0,1,.23.23v1.233l.031,0a3.351,3.351,0,0,1,.185-.3,3.386,3.386,0,0,1,2.783-1.454h.6a3.814,3.814,0,0,1,3.814,3.814Z" transform="translate(-259.5 -42.793)"/></svg>