<svg xmlns="http://www.w3.org/2000/svg" width="196.537" height="101.488" viewBox="0 0 196.537 101.488"><defs><style>.a{fill:#313133;}.b{fill:#1a8ccf;}.c{fill:#004484;}.d{fill:#7f1d46;}.e{fill:#ea4148;}</style></defs><g transform="translate(-38.021 -46.69)"><g transform="translate(117.351 127.448)"><path class="a" d="M166.341,165.321l-1.2,1.245a6.409,6.409,0,0,0-4.7-1.844c-3.709,0-6.242,2.856-6.242,6.635,0,3.892,2.626,6.61,6.219,6.61a6.628,6.628,0,0,0,4.721-1.681V172.9H161.55v-1.636h5.389v5.828a8.68,8.68,0,0,1-6.587,2.6,7.978,7.978,0,0,1-8.107-8.338,8.306,8.306,0,0,1,14.1-6.035Z" transform="translate(-152.245 -162.971)"/><path class="a" d="M183.527,170.761c-2.741,0-3.547,2.165-3.547,4.722v5.735h-1.82V169.24h1.8v2a3.71,3.71,0,0,1,3.57-2.3Z" transform="translate(-160.162 -164.795)"/><path class="a" d="M193.554,168.941a6.288,6.288,0,1,1-6.264,6.288A6.088,6.088,0,0,1,193.554,168.941Zm-.023,10.917a4.637,4.637,0,1,0-4.377-4.629A4.376,4.376,0,0,0,193.532,179.858Z" transform="translate(-162.951 -164.795)"/><path class="a" d="M208.919,176.857v-7.485h1.82v7.555a2.8,2.8,0,0,0,2.834,3.063,3.075,3.075,0,0,0,3.109-3.339v-7.278h1.843v11.977H216.7v-1.727a4.026,4.026,0,0,1-3.547,2.027C210.37,181.649,208.919,179.576,208.919,176.857Z" transform="translate(-169.558 -164.926)"/><path class="a" d="M227.53,169.24h1.751v1.89a4.956,4.956,0,0,1,4.17-2.189c3.408,0,5.85,2.6,5.85,6.265,0,3.709-2.327,6.311-5.712,6.311a4.954,4.954,0,0,1-4.238-2.234v6.242h-1.82Zm5.851,10.618c2.35,0,4.054-1.911,4.054-4.652,0-2.809-1.8-4.607-4.1-4.607-2.488,0-4.055,2.1-4.055,4.607C229.281,178.154,231.124,179.858,233.381,179.858Z" transform="translate(-175.244 -164.795)"/></g><g transform="translate(38.021 127.667)"><path class="b" d="M60.264,163.287H44.053L38.021,179.5h16.21Z" transform="translate(-38.021 -163.287)"/><path class="c" d="M83.651,163.287H67.44L61.409,179.5H77.619Z" transform="translate(-45.166 -163.287)"/><path class="d" d="M106.976,163.287H90.766L84.734,179.5h16.211Z" transform="translate(-52.292 -163.287)"/><path class="e" d="M130.317,163.287H114.106L108.075,179.5h16.21Z" transform="translate(-59.422 -163.287)"/></g><g transform="translate(44.053 46.69)"><path class="a" d="M71.022,46.689,46.706,111.532H62.917l3.04-8.1H82.11l-6.085-16.21H72.035l7.1-18.922,16.227,43.237h16.211L87.232,46.689Z" transform="translate(-46.706 -46.689)"/><rect class="a" width="16.21" height="64.843" transform="translate(174.295)"/><path class="a" d="M176.126,71.005A24.316,24.316,0,0,0,151.809,46.69H125.4L131.53,62.9l0,.006H151.8v0a8.1,8.1,0,0,1,0,16.2H137.613l0,.008,6.08,16.2h8.1c.676,0,1.354-.025,2.018-.079l6.117,16.3h16.211l-8.34-22.221A24.255,24.255,0,0,0,176.126,71.005Z" transform="translate(-70.746 -46.69)"/><path class="a" d="M233.534,46.69H207.125l6.13,16.211h20.313c.209,0,.414.015.618.031a8.1,8.1,0,0,1,0,16.138c-.219.017-.439.033-.662.033H213.255v32.429h16.211V95.313h4.068a24.312,24.312,0,1,0,0-48.623Z" transform="translate(-95.712 -46.69)"/></g></g></svg>