<svg xmlns="http://www.w3.org/2000/svg" viewBox="0 0 283.19 146.42"><defs><style>.cls-1{fill:#fff;}.cls-2{fill:#005495;}</style></defs><title>Asset 1</title><g id="Layer_2" data-name="Layer 2"><g id="Layer_1-2" data-name="Layer 1"><path class="cls-1" d="M118.06,134.4a5,5,0,0,0,5.07,3.61c2.45,0,4.21-1.42,4.21-3.84,0-5.8-10.87-4.31-10.87-11.79,0-3.31,2.52-5.93,6.63-5.93a6.76,6.76,0,0,1,6.56,4.44l-2.25.92a4.67,4.67,0,0,0-4.34-2.91c-2.55,0-3.91,1.56-3.91,3.48,0,5.3,10.9,4.21,10.9,11.63,0,3.65-2.68,6.49-7,6.49a7.2,7.2,0,0,1-7.25-5.1Z"/><path class="cls-1" d="M134.14,119.23h2.62v3.61h3.78v2.22h-3.78v8.88c0,3.21.93,4,3.18,4,.33,0,.73,0,.73,0v2.32a12.46,12.46,0,0,1-1.59.1c-3.45,0-4.93-2.25-4.93-6.13v-9.11h-2v-2.22h2Z"/><path class="cls-1" d="M149.57,129.1a6.56,6.56,0,0,1,4.54,1.56v-2.12c0-2.42-1.62-3.81-4.17-3.81a9.86,9.86,0,0,0-5.07,1.49l-1.06-1.92a12.13,12.13,0,0,1,6.36-1.89c4.7,0,6.56,2.62,6.56,6.29v11.36h-2.25l-.3-1.46a5.86,5.86,0,0,1-4.67,1.89c-3.78,0-6.56-2.38-6.56-5.73S145.69,129.1,149.57,129.1Zm.36,9.21c2.52,0,4.27-1.49,4.27-3.58s-1.72-3.54-4.31-3.54-4.31,1.52-4.31,3.54S147.28,138.31,149.93,138.31Z"/><path class="cls-1" d="M161.91,125.06H160v-2.22h1.92v-.9c0-4.34,2.62-5.73,5.4-5.73a10,10,0,0,1,1.09.07v2.29a6.24,6.24,0,0,0-.83-.07c-2,0-3,1.06-3,3.44v.9h3.68v2.22h-3.68v15h-2.65Z"/><path class="cls-1" d="M172.56,125.06h-1.92v-2.22h1.92v-.9c0-4.34,2.62-5.73,5.4-5.73a10,10,0,0,1,1.09.07v2.29a6.26,6.26,0,0,0-.83-.07c-2,0-3,1.06-3,3.44v.9h3.67v2.22h-3.67v15h-2.65Z"/><path class="cls-1" d="M183.61,116.61a1.8,1.8,0,1,1-1.79,1.79A1.79,1.79,0,0,1,183.61,116.61Zm-1.29,6.23h2.62v17.22h-2.62Z"/><path class="cls-1" d="M203.66,129.3v10.76H201V129.2c0-2.75-1.72-4.41-4.08-4.41-2.65,0-4.47,2-4.47,4.8v10.47h-2.62V122.84h2.58v2.48a5.85,5.85,0,0,1,5.13-2.91C201.61,122.41,203.66,125.39,203.66,129.3Z"/><path class="cls-1" d="M210.47,142.65a10.81,10.81,0,0,0,5.2,1.43c3.28,0,6.06-1.36,6.06-5.2v-1.52a6.93,6.93,0,0,1-6,3.15c-4.94,0-8.31-3.74-8.31-9s3.41-9.08,8.28-9.08a7.15,7.15,0,0,1,6.09,3.21v-2.78h2.52v14.84c0,6.53-3.68,8.74-8.65,8.74a12.61,12.61,0,0,1-6.16-1.72Zm5.47-17.85c-3.35,0-5.83,2.75-5.83,6.69s2.58,6.62,5.9,6.62c3.54,0,5.83-2.92,5.83-6.62C221.83,127.31,219.22,124.79,215.94,124.79Z"/><polygon class="cls-2" points="8.69 116.7 0 140.06 93.43 140.06 102.12 116.7 8.69 116.7"/><polygon class="cls-1" points="43.69 0 8.65 93.45 32.01 93.45 36.39 81.77 59.67 81.77 50.9 58.41 45.15 58.41 55.37 31.14 78.76 93.45 102.12 93.45 67.05 0 43.69 0"/><rect class="cls-1" x="259.83" width="23.36" height="93.45"/><path class="cls-1" d="M160.51,35a35,35,0,0,0-35-35H87.41l8.83,23.36h29.21a11.68,11.68,0,1,1,0,23.35H105l8.76,23.35h11.67c1,0,2,0,2.91-.12l8.81,23.49h23.36l-12-32A35,35,0,0,0,160.51,35Z"/><path class="cls-1" d="M207.26,0H169.21L178,23.36h29.28c.3,0,.59,0,.89,0a11.67,11.67,0,0,1,0,23.26c-.32,0-.63,0-1,0H178V93.45H201.4V70.07h5.87a35,35,0,1,0,0-70.07Z"/></g></g></svg>