<svg xmlns="http://www.w3.org/2000/svg"  viewBox="0 0 131.431 67.868"><defs><style>.a{fill:#434343;}.b{fill:#1a8ccf;}.c{fill:#004484;}.d{fill:#7f1d46;}.e{fill:#ea4148;}</style></defs><g transform="translate(-17.016 -317.808)"><g transform="translate(70.065 371.813)"><path class="a" d="M47.8,341.123l-.8.832a4.281,4.281,0,0,0-3.142-1.234,4.437,4.437,0,0,0-.015,8.857A4.434,4.434,0,0,0,47,348.455V346.19H44.6V345.1h3.6v3.9a5.811,5.811,0,0,1-4.406,1.739,5.335,5.335,0,0,1-5.422-5.574,5.554,5.554,0,0,1,9.426-4.036Z" transform="translate(-38.374 -339.551)"/><path class="a" d="M46.809,341.884c-1.833,0-2.372,1.448-2.372,3.159v3.835H43.22v-8.01h1.2v1.341a2.481,2.481,0,0,1,2.387-1.542Z" transform="translate(-31.184 -337.895)"/><path class="a" d="M49.117,340.667a4.205,4.205,0,1,1-4.19,4.207A4.071,4.071,0,0,1,49.117,340.667Zm-.015,7.3a3.1,3.1,0,1,0-2.928-3.095A2.928,2.928,0,0,0,49.1,347.969Z" transform="translate(-28.651 -337.895)"/><path class="a" d="M48.972,345.755v-5.007h1.217V345.8a1.872,1.872,0,0,0,1.9,2.049,2.057,2.057,0,0,0,2.079-2.233v-4.868H55.4v8.01H54.178V347.6a2.7,2.7,0,0,1-2.372,1.354C49.941,348.957,48.972,347.571,48.972,345.755Z" transform="translate(-22.649 -337.775)"/><path class="a" d="M52.452,340.868h1.17v1.264a3.318,3.318,0,0,1,2.789-1.465,3.907,3.907,0,0,1,3.912,4.19c0,2.481-1.557,4.22-3.82,4.22a3.314,3.314,0,0,1-2.834-1.493v4.173H52.452Zm3.912,7.1a3.121,3.121,0,1,0-2.742-3.112A2.817,2.817,0,0,0,56.364,347.969Z" transform="translate(-17.485 -337.895)"/></g><g transform="translate(17.016 371.961)"><path class="b" d="M31.89,339.61H21.049l-4.033,10.841h10.84Z" transform="translate(-17.016 -339.61)"/><path class="c" d="M36.263,339.61H25.422l-4.033,10.841H32.23Z" transform="translate(-10.527 -339.61)"/><path class="d" d="M40.625,339.61H29.784L25.75,350.451H36.591Z" transform="translate(-4.055 -339.61)"/><path class="e" d="M44.989,339.61H34.148l-4.033,10.841h10.84Z" transform="translate(2.421 -339.61)"/></g><g transform="translate(21.049 317.808)"><path class="a" d="M34.9,317.808,18.64,361.17H29.481l2.033-5.42h10.8l-4.07-10.84H35.578l4.745-12.654L51.175,361.17H62.016L45.741,317.808Z" transform="translate(-18.64 -317.808)"/><rect class="a" width="10.84" height="43.363" transform="translate(116.557)"/><path class="a" d="M67.276,334.069a16.261,16.261,0,0,0-16.261-16.261H33.355l4.1,10.837,0,0H51.007v0a5.418,5.418,0,1,1,0,10.837H41.522l0,0,4.066,10.834h5.417c.452,0,.907-.017,1.351-.052l4.091,10.9H67.289l-5.576-14.861A16.217,16.217,0,0,0,67.276,334.069Z" transform="translate(3.195 -317.807)"/><path class="a" d="M66.3,317.808H48.636l4.1,10.842H66.321c.139,0,.276.01.412.02a5.414,5.414,0,0,1,0,10.792c-.147.01-.293.022-.442.022H52.737V361.17H63.576V350.323H66.3a16.258,16.258,0,1,0,0-32.515Z" transform="translate(25.869 -317.807)"/></g></g></svg>